<?xml version="1.0" standalone="no"?>
<!DOCTYPE svg PUBLIC "-//W3C//DTD SVG 20010904//EN"
 "http://www.w3.org/TR/2001/REC-SVG-20010904/DTD/svg10.dtd">
<svg version="1.0" xmlns="http://www.w3.org/2000/svg"
 width="703.000000pt" height="703.000000pt" viewBox="0 0 703.000000 703.000000"
 preserveAspectRatio="xMidYMid meet">
<metadata>
Created by potrace 1.11, written by Peter Selinger 2001-2013
</metadata>
<g transform="translate(0.000000,703.000000) scale(0.100000,-0.100000)"
fill="#000000" stroke="none">
<path d="M3577 7014 c-4 -4 -31 -8 -60 -9 -36 -1 -59 -7 -75 -20 -12 -11 -27
-21 -32 -21 -6 -1 -12 -3 -15 -4 -3 -1 -8 -3 -12 -5 -78 -21 -119 -74 -114
-142 1 -20 -2 -33 -9 -33 -6 0 -8 -4 -5 -10 5 -9 -8 -14 -19 -7 -2 1 -12 -6
-23 -15 -19 -18 -48 -26 -94 -27 -22 -1 -26 -6 -26 -27 0 -22 3 -25 23 -21 13
2 24 0 24 -4 0 -5 -7 -9 -15 -9 -23 0 -22 0 -65 -15 -22 -8 -42 -14 -45 -15
-9 0 -5 -15 4 -15 5 0 13 -4 18 -9 5 -6 2 -6 -6 -1 -10 6 -13 4 -9 -7 4 -8 2
-21 -2 -28 -12 -19 0 -36 12 -19 8 11 9 11 5 -1 -2 -8 -10 -14 -17 -12 -8 2
-11 -4 -7 -17 3 -11 0 -19 -5 -18 -10 2 -54 -112 -60 -156 -2 -12 -7 -25 -11
-28 -5 -3 -9 -20 -9 -37 -1 -17 -4 -30 -7 -28 -3 2 -7 -6 -7 -17 -4 -50 -14
-162 -15 -167 -1 -3 0 -9 1 -15 8 -38 8 -45 -1 -45 -6 0 -6 -6 0 -18 6 -11 10
-27 10 -38 -1 -10 2 -30 5 -43 3 -14 0 -31 -6 -38 -8 -11 -7 -12 7 -7 15 6 17
1 14 -39 -3 -37 -1 -47 11 -47 12 0 12 -2 2 -9 -19 -11 7 -94 27 -86 11 4 12
3 1 -10 -10 -12 -10 -15 4 -15 9 0 16 -6 16 -14 0 -8 7 -17 16 -20 15 -6 15
-8 -2 -29 -10 -12 -12 -16 -4 -9 16 13 31 16 29 5 -4 -22 2 -33 14 -27 7 5 6
-1 -4 -16 -11 -17 -42 -33 -105 -53 -49 -16 -100 -34 -114 -40 -14 -6 -29 -12
-35 -13 -5 -1 -12 -3 -15 -4 -9 -3 -70 -15 -125 -25 -11 -2 -29 -6 -40 -9 -11
-2 -26 -5 -33 -5 -7 -1 -11 -5 -8 -10 4 -5 -3 -7 -14 -4 -13 3 -20 0 -20 -8 0
-12 -2 -12 -9 -1 -6 11 -10 10 -15 -4 -6 -16 -8 -16 -16 -4 -6 10 -10 11 -10
3 0 -7 -7 -10 -15 -7 -8 4 -15 1 -15 -5 0 -6 -7 -8 -17 -4 -12 5 -14 3 -8 -8
7 -11 6 -12 -6 -4 -12 9 -33 11 -49 5 -3 -1 -21 -3 -40 -5 -118 -11 -168 -32
-235 -100 -64 -64 -92 -101 -87 -116 1 -5 -2 -9 -7 -9 -5 0 -15 -17 -22 -37
-6 -21 -15 -42 -19 -48 -8 -11 -53 -148 -70 -213 -17 -65 -26 -152 -35 -322
-5 -98 -13 -196 -20 -240 -4 -26 -7 -47 -25 -190 -6 -47 -13 -98 -15 -115 -3
-16 -7 -52 -10 -80 -3 -27 -9 -70 -12 -95 -3 -25 -7 -57 -7 -72 -1 -16 -5 -28
-10 -28 -5 0 -6 -3 -3 -7 4 -3 2 -12 -4 -20 -6 -7 -9 -13 -6 -13 3 0 -7 -46
-22 -102 -16 -57 -30 -109 -32 -117 -7 -25 -97 -209 -122 -248 -13 -21 -25
-41 -26 -45 0 -5 -9 -16 -18 -26 -21 -22 -83 -110 -83 -117 1 -3 -6 -13 -15
-21 -8 -9 -13 -20 -10 -25 4 -5 2 -9 -3 -9 -5 0 -21 -22 -36 -49 -19 -36 -23
-51 -14 -54 8 -3 5 -6 -6 -6 -11 -1 -16 -6 -13 -15 3 -8 1 -16 -4 -18 -5 -2
-11 -17 -12 -33 -1 -17 -7 -36 -14 -43 -7 -7 -15 -29 -19 -50 -4 -20 -13 -46
-20 -57 -8 -11 -14 -25 -14 -32 0 -6 -5 -24 -12 -40 -6 -15 -12 -35 -14 -43
-2 -8 -17 -48 -34 -89 -16 -41 -30 -77 -30 -81 0 -4 -10 -29 -22 -56 -12 -27
-23 -55 -24 -61 -1 -7 -24 -52 -51 -100 -26 -49 -50 -92 -52 -98 -2 -5 -19
-31 -38 -57 -18 -27 -31 -48 -28 -48 3 0 -4 -9 -15 -20 -11 -11 -20 -26 -20
-34 0 -8 -4 -16 -8 -18 -4 -1 -21 -30 -37 -63 -17 -33 -38 -69 -48 -80 -10
-10 -15 -25 -12 -33 2 -7 0 -10 -5 -7 -6 3 -29 -23 -52 -59 -34 -55 -44 -64
-59 -56 -10 6 -29 10 -43 10 -14 0 -27 4 -30 8 -3 5 -22 7 -43 4 -21 -2 -42
-4 -48 -4 -27 -1 -65 12 -99 36 -46 31 -79 33 -106 6 -33 -33 -25 -90 22 -143
12 -14 14 -26 7 -49 -4 -17 -11 -63 -15 -102 -5 -64 -10 -102 -18 -131 -1 -5
-10 -26 -21 -45 -30 -57 -20 -105 33 -162 l25 -27 -37 -63 c-21 -34 -39 -73
-40 -85 -2 -13 -6 -26 -9 -30 -4 -3 -7 -23 -7 -43 0 -44 25 -72 55 -60 29 12
37 12 28 -2 -9 -16 -5 -60 8 -72 18 -19 44 -15 71 11 16 15 29 24 29 20 3 -16
7 -25 42 -112 6 -16 12 -32 12 -35 5 -39 127 -190 155 -190 4 0 29 -10 56 -22
27 -12 55 -23 63 -24 30 -5 121 -50 125 -62 4 -9 -2 -8 -23 2 -27 14 -28 14
-27 -7 1 -21 5 -22 81 -19 107 4 206 11 230 16 11 2 26 -2 34 -8 10 -7 13 -8
8 0 -4 7 6 11 26 13 113 6 228 16 296 27 33 5 34 4 21 -13 -14 -17 -14 -17 6
0 13 11 37 18 60 18 22 -1 71 2 109 4 39 3 97 8 130 10 125 8 201 16 219 21
10 4 22 0 27 -7 7 -12 9 -12 9 0 0 11 3 11 17 0 11 -10 14 -10 9 -1 -4 7 -2
12 6 13 7 0 23 2 36 3 12 2 22 -1 22 -5 0 -5 12 -4 26 1 31 12 37 12 30 1 -7
-10 20 -9 30 2 12 12 26 8 18 -6 -6 -9 -4 -9 7 0 20 19 63 17 55 -3 -3 -8 -2
-12 4 -9 6 3 10 12 10 18 0 8 21 13 61 14 52 1 59 -2 55 -16 -5 -12 -2 -11 9
3 8 11 15 16 15 12 0 -5 8 -2 17 5 11 10 14 10 9 2 -8 -14 6 -18 18 -6 3 4 20
7 36 8 16 1 33 5 37 8 3 4 15 -1 26 -10 11 -10 17 -12 13 -5 -4 6 -4 12 1 13
4 0 16 2 26 4 9 2 15 -1 11 -6 -3 -5 -10 -7 -15 -4 -5 4 -9 2 -9 -3 0 -6 7
-13 16 -16 8 -3 12 -2 9 4 -3 5 7 8 22 7 15 -1 31 -9 36 -17 4 -9 5 -3 2 13
-5 27 -5 27 17 15 13 -7 26 -11 31 -10 4 1 7 -4 7 -10 0 -9 4 -8 10 2 5 8 10
20 10 25 0 6 -5 3 -10 -5 -9 -13 -10 -13 -10 0 0 13 -1 13 -11 0 -9 -13 -10
-13 -6 0 5 22 29 20 50 -4 14 -17 17 -18 15 -4 -2 9 2 16 7 15 6 -1 9 -6 7
-11 -2 -5 4 -3 14 5 19 16 116 21 111 6 -4 -13 -37 -18 -37 -7 0 5 -9 8 -19 7
-11 0 -17 -5 -14 -10 3 -4 8 -6 11 -3 3 4 17 -4 30 -16 14 -13 22 -17 17 -9
-6 10 -3 12 12 7 12 -4 25 -1 33 9 13 15 30 12 30 -6 0 -6 -5 -7 -12 -3 -7 4
-8 3 -4 -5 6 -8 12 -9 20 -2 7 6 17 7 21 3 5 -4 5 -1 1 5 -10 19 4 16 27 -4
11 -10 18 -13 14 -8 -3 7 13 11 44 13 33 1 48 -2 43 -9 -3 -6 5 -3 20 6 24 16
26 16 32 0 5 -13 9 -14 15 -3 7 11 11 10 19 -2 5 -8 10 -10 10 -5 0 20 -16 31
-42 30 -28 -2 -37 8 -18 20 6 3 10 1 10 -5 0 -6 5 -8 10 -5 8 5 7 12 -2 23
-11 15 -11 15 3 5 9 -7 20 -9 24 -5 5 4 5 2 1 -5 -3 -6 -2 -14 3 -17 5 -4 13
3 16 15 4 11 9 18 12 16 2 -3 0 -15 -6 -26 -9 -17 -9 -20 3 -15 8 3 16 14 19
25 5 18 9 19 27 9 16 -9 25 -8 36 1 8 6 14 8 14 4 0 -12 -33 -34 -50 -35 -12
0 -12 2 -2 9 11 7 10 9 -3 15 -12 4 -15 1 -13 -12 2 -9 -5 -23 -17 -30 -19
-12 -19 -13 4 -6 17 4 21 3 16 -6 -5 -9 -4 -11 4 -6 6 4 8 12 5 18 -4 6 -1 8
7 6 8 -3 13 -11 11 -17 -1 -6 2 -11 8 -11 5 0 10 5 10 10 0 6 6 10 13 10 8 0
22 9 32 20 10 11 13 20 7 20 -7 0 -12 -4 -12 -8 0 -5 -11 -14 -25 -20 -16 -7
-25 -8 -25 -2 0 6 11 15 24 20 13 5 27 15 30 22 5 10 7 10 12 0 3 -6 11 -9 17
-5 7 4 21 9 32 10 16 2 17 1 5 -6 -8 -5 -17 -8 -22 -5 -4 2 -12 -4 -18 -15 -8
-17 -6 -22 12 -31 21 -10 21 -10 6 3 -18 15 -14 27 9 27 7 0 12 -6 11 -13 -2
-7 7 -12 20 -12 12 0 22 4 21 9 -1 16 24 25 43 15 18 -10 19 -9 22 13 0 6 8
13 16 15 12 4 12 2 2 -5 -10 -7 -9 -12 4 -23 12 -9 15 -10 10 -2 -4 7 -2 13 3
13 6 0 11 -6 11 -14 0 -8 4 -17 9 -20 5 -4 7 4 3 16 -4 16 -2 20 10 15 9 -3
26 2 39 10 14 11 19 12 14 3 -5 -8 -3 -11 6 -8 8 3 22 -2 32 -10 13 -12 20
-13 29 -4 6 6 18 8 27 3 20 -9 32 -8 50 3 10 6 12 5 7 -2 -10 -16 7 -15 23 1
11 9 13 9 7 -1 -8 -13 15 -17 28 -5 3 4 16 7 28 8 20 2 20 1 3 -11 -10 -7 -22
-11 -26 -8 -5 3 -9 0 -9 -6 0 -8 7 -9 18 -5 9 4 25 8 35 9 10 2 22 8 26 15 6
10 10 9 14 -4 5 -11 3 -14 -6 -9 -9 5 -8 3 1 -7 11 -12 14 -12 22 1 7 10 10
11 10 3 0 -7 5 -13 11 -13 5 0 7 4 4 10 -3 6 1 7 9 4 9 -3 13 -11 9 -18 -3 -6
-1 -6 8 1 18 17 34 17 20 0 -8 -10 -7 -14 4 -14 8 0 15 6 15 13 0 8 6 11 14 8
8 -3 17 0 21 5 3 6 11 9 16 5 5 -3 7 -10 3 -15 -3 -6 5 -8 20 -5 14 3 26 0 26
-5 0 -5 5 -9 11 -9 5 0 8 4 5 8 -3 5 1 9 9 9 18 0 18 -2 4 -30 -10 -21 -9 -21
5 -3 9 10 22 16 31 13 10 -4 15 -1 15 11 1 15 2 14 12 -3 11 -19 11 -19 19 0
7 19 8 18 8 -2 1 -13 6 -23 12 -23 6 0 8 7 5 16 -3 9 -2 12 5 9 5 -4 18 -1 27
7 15 11 15 11 5 -2 -10 -13 -8 -18 8 -29 12 -7 24 -10 27 -7 3 3 0 6 -7 6 -7
0 -9 5 -5 12 5 7 3 8 -6 3 -8 -5 -11 -4 -7 2 8 13 57 4 57 -11 0 -6 5 -4 11 4
8 12 10 10 5 -10 l-5 -25 20 25 c12 14 18 19 14 13 -3 -8 0 -13 7 -13 8 0 20
6 27 13 11 9 13 9 7 0 -4 -7 -2 -13 5 -13 8 0 7 -5 -2 -17 -13 -16 -12 -17 3
-4 10 7 15 17 12 22 -3 5 0 9 5 9 6 0 11 -6 11 -12 0 -10 3 -9 9 1 6 9 10 10
16 2 5 -9 10 -9 21 0 11 9 14 9 14 -1 0 -7 8 -10 20 -7 11 3 20 2 20 -2 0 -4
7 -8 15 -8 8 0 15 4 15 9 0 5 5 6 10 3 6 -4 8 -11 5 -16 -4 -5 -1 -9 4 -9 6 0
11 3 11 8 0 4 14 7 30 7 17 0 30 -3 30 -7 0 -5 -5 -8 -12 -8 -6 0 -9 -3 -5 -6
3 -3 12 -2 19 2 15 10 50 13 61 7 4 -3 2 -12 -5 -21 -7 -10 0 -6 15 7 15 14
27 20 27 14 0 -6 19 -9 45 -8 27 2 42 -1 39 -7 -4 -6 4 -5 16 2 21 11 22 10
16 -6 -6 -15 -5 -17 5 -7 7 7 24 13 37 13 22 0 23 -2 11 -17 -13 -17 -13 -17
7 -1 24 21 38 23 28 6 -6 -10 -4 -10 8 0 11 9 18 10 23 2 3 -5 11 -10 16 -10
6 0 7 6 3 12 -6 10 -4 10 7 3 8 -6 23 -10 34 -10 11 0 25 -6 32 -15 10 -13 12
-13 18 2 4 10 11 15 16 12 5 -3 7 -9 4 -14 -6 -10 36 -6 54 4 6 4 18 3 26 -4
9 -8 15 -8 20 0 10 16 25 2 19 -18 -5 -14 -4 -15 5 -2 12 17 91 22 91 6 0 -6
4 -6 11 1 7 7 21 8 33 4 11 -3 35 -6 51 -5 17 1 36 -4 44 -10 11 -8 13 -8 8 1
-4 6 -3 14 3 18 5 3 10 1 10 -5 0 -6 12 -8 30 -5 19 3 30 1 30 -6 0 -8 4 -8
13 -2 6 6 20 9 30 8 9 -2 17 1 17 6 0 5 -11 7 -25 5 -13 -3 -27 -1 -30 4 -3 5
4 7 15 5 12 -2 20 1 20 9 0 12 57 33 180 67 57 16 49 13 92 33 46 20 108 78
108 100 0 9 7 19 15 22 8 4 13 10 10 14 -3 5 2 13 11 18 9 5 15 12 15 15 -1 4
1 7 4 7 3 0 5 -3 4 -6 0 -4 3 -10 8 -13 4 -3 15 -15 23 -25 13 -18 13 -19 0
-12 -8 4 -5 -1 8 -10 12 -9 22 -22 22 -30 0 -16 29 -33 55 -31 12 1 24 -9 34
-28 9 -16 19 -32 24 -33 4 -2 7 -9 7 -15 0 -13 36 -40 58 -43 16 -3 52 35 52
54 0 10 6 12 18 7 74 -32 99 1 79 105 -4 20 -67 120 -76 120 -8 0 -41 54 -41
68 0 5 20 17 44 26 69 26 92 66 76 129 -5 17 -11 61 -14 97 -3 36 -9 78 -14
95 -6 23 -5 33 9 45 12 10 19 34 21 73 4 51 1 61 -20 82 -14 14 -30 25 -36 25
-17 0 -81 36 -132 75 -25 19 -53 35 -63 35 -23 0 -132 58 -147 78 -29 39 -170
342 -195 417 -11 33 -24 69 -30 80 -6 12 -11 27 -13 35 -2 8 -8 29 -15 45 -7
17 -19 50 -27 75 -9 25 -18 52 -21 60 -10 25 -21 66 -29 110 -2 14 -7 36 -11
50 -4 14 -8 32 -9 40 -5 36 -31 165 -54 270 -12 52 -22 102 -24 110 -19 115
-70 230 -182 417 -41 67 -74 126 -74 131 0 5 -8 20 -18 33 -10 13 -27 44 -37
69 -11 25 -24 48 -30 52 -5 4 -7 8 -3 8 4 0 0 19 -8 43 -9 23 -17 49 -19 57
-2 8 -15 56 -29 105 -13 50 -27 104 -30 120 -11 58 -26 140 -31 175 -7 45 -12
69 -19 98 -9 33 -15 64 -21 97 -3 17 -8 44 -11 60 -3 17 -7 42 -7 58 -1 15 -4
27 -7 27 -3 0 -5 55 -4 123 0 67 -4 130 -8 139 -5 9 -4 19 2 23 5 3 6 15 1 28
-4 12 -9 45 -10 72 -2 28 -8 56 -13 63 -6 7 -8 15 -5 18 3 3 -2 29 -10 57 -9
29 -16 58 -16 65 0 6 -5 12 -10 12 -6 0 -7 3 -4 6 3 4 1 16 -5 28 -7 11 -13
28 -14 36 -6 32 -80 175 -118 227 -44 58 -148 115 -236 128 -19 3 -53 8 -75
11 -22 3 -48 6 -57 6 -10 -1 -18 3 -18 7 0 5 -11 7 -25 6 -14 -2 -25 0 -25 4
0 7 -64 33 -75 31 -3 0 -13 6 -22 15 -8 9 -21 14 -29 11 -7 -3 -18 2 -24 9 -7
8 -16 12 -21 9 -5 -3 -9 0 -9 5 0 6 -7 11 -15 11 -8 0 -23 5 -33 10 -9 6 -38
19 -64 30 -27 10 -48 24 -48 30 0 6 -4 9 -9 6 -5 -4 -11 -3 -13 1 -1 5 -21 18
-43 29 -30 17 -40 28 -39 45 2 37 3 39 15 39 8 0 8 -5 -1 -15 -9 -10 -9 -15
-1 -15 6 0 12 6 13 13 4 37 3 63 -5 68 -4 3 -1 21 7 40 9 19 16 30 16 24 1
-10 16 12 21 30 1 6 8 15 16 20 8 6 15 18 16 26 2 9 10 27 18 40 40 62 59 163
58 309 0 90 -3 115 -15 113 -6 -1 -9 11 -6 28 2 16 0 29 -5 29 -5 0 -10 16
-11 36 -2 20 -9 49 -17 64 -8 15 -11 30 -8 34 4 3 1 6 -6 6 -7 0 -9 5 -6 10 3
6 1 10 -5 10 -6 0 -8 5 -5 10 3 6 1 10 -5 10 -6 0 -9 4 -5 9 3 5 -1 16 -9 24
-8 8 -12 17 -9 21 4 3 -2 6 -12 6 -10 0 -15 3 -12 7 4 3 -1 15 -10 26 -13 15
-14 18 -3 12 9 -5 12 -5 7 1 -5 5 -23 15 -40 22 -31 12 -31 12 -4 8 l28 -3
-22 24 c-13 13 -29 21 -36 19 -7 -3 -15 0 -19 6 -4 7 -3 8 4 4 7 -4 12 -1 12
7 0 17 -39 59 -49 53 -4 -3 -15 11 -25 30 -9 20 -25 38 -36 41 -20 5 -20 23 1
81 5 14 5 22 -2 22 -6 0 -8 9 -4 21 5 14 3 19 -4 15 -6 -4 -15 10 -22 37 -16
65 -72 111 -159 132 -29 7 -83 16 -120 20 -25 2 -63 7 -85 10 -22 4 -44 3 -48
-1z m-514 -409 c4 -8 3 -16 -1 -19 -4 -3 -9 4 -9 15 -2 23 3 25 10 4z m-364
-1198 c-2 -1 -11 -8 -21 -15 -12 -10 -18 -10 -24 -1 -4 7 -3 9 4 5 6 -3 13 -2
17 4 3 5 11 10 17 10 6 0 9 -1 7 -3z m28 -33 c-3 -3 -12 -4 -19 -1 -8 3 -5 6
6 6 11 1 17 -2 13 -5z m1966 -1572 c38 -132 65 -231 65 -237 0 -3 3 -18 6 -33
4 -15 8 -36 10 -48 2 -12 29 -81 59 -155 51 -126 69 -186 81 -269 3 -19 8 -46
11 -60 3 -14 7 -37 10 -52 3 -15 10 -39 15 -53 5 -14 12 -40 15 -57 3 -17 12
-43 21 -59 8 -16 12 -29 9 -29 -4 0 -3 -6 2 -12 4 -7 9 -22 10 -33 2 -10 7
-22 11 -25 4 -3 8 -12 10 -20 5 -27 65 -140 74 -140 5 0 7 -4 3 -9 -3 -5 1
-16 9 -24 8 -8 12 -17 9 -21 -3 -3 2 -8 11 -12 9 -3 13 -10 10 -15 -3 -6 -2
-15 4 -22 5 -7 22 -43 38 -82 15 -38 32 -73 37 -76 5 -3 8 -10 7 -15 -2 -16
52 -134 60 -129 4 2 7 -3 7 -13 0 -26 14 -62 24 -62 5 0 9 -7 9 -15 0 -8 5
-15 10 -15 6 0 9 -3 9 -7 -3 -13 25 -73 33 -73 4 0 8 -7 8 -15 0 -8 5 -15 10
-15 6 0 9 -6 8 -12 -2 -7 2 -12 8 -11 7 1 10 -6 7 -17 -4 -14 2 -23 18 -29 13
-5 17 -10 9 -11 -9 0 -11 -3 -5 -8 6 -4 16 -20 23 -35 7 -17 17 -25 24 -21 7
4 8 3 4 -4 -6 -10 9 -48 25 -62 3 -3 11 -20 18 -37 8 -18 20 -33 28 -33 8 0
12 -4 8 -9 -6 -10 14 -61 25 -61 3 0 12 -16 20 -35 7 -19 17 -32 22 -29 4 3 8
-4 8 -15 0 -12 5 -21 12 -21 6 0 8 -3 5 -6 -8 -8 24 -64 36 -64 4 0 5 -5 2
-10 -3 -5 -1 -10 5 -10 6 0 9 -4 6 -9 -3 -5 1 -14 10 -21 8 -7 13 -19 10 -27
-3 -7 -1 -13 4 -13 6 0 10 -8 10 -18 0 -10 5 -23 12 -30 14 -14 4 -16 -20 -2
-27 15 -165 71 -186 75 -10 3 -34 13 -52 24 -19 12 -48 22 -64 23 -17 1 -30 5
-30 8 0 7 -37 9 -230 14 -91 3 -171 5 -179 5 -7 1 -11 7 -8 16 8 18 -22 54
-49 59 -11 2 -38 16 -59 30 -21 14 -43 26 -49 27 -6 0 -20 3 -31 5 -34 8 -119
8 -137 0 -16 -7 -23 4 -32 51 -2 10 -10 38 -17 63 -7 25 -13 50 -15 55 -6 29
-37 112 -45 121 -13 16 -21 51 -23 100 0 22 -8 49 -16 58 -8 10 -15 41 -15 70
-2 71 -15 129 -34 144 -9 8 -10 11 -3 7 17 -9 17 -6 -24 100 -4 11 -8 24 -8
28 -1 4 -8 12 -16 17 -12 8 -12 10 -1 10 11 0 11 3 1 15 -7 8 -10 15 -6 15 3
0 1 12 -5 28 -18 46 -20 64 -19 152 1 47 2 142 3 213 1 70 4 127 8 127 3 0 6
6 6 13 0 18 13 118 19 152 3 17 7 44 9 60 5 42 13 73 21 86 3 6 9 27 11 46 4
28 2 34 -9 27 -7 -4 -5 2 6 14 10 11 20 38 23 59 3 21 9 46 15 56 6 12 6 23
-2 33 -18 21 -4 78 40 166 23 45 44 104 50 140 18 114 33 147 65 148 6 0 23
-44 38 -98z m-2245 -331 c12 -36 21 -73 21 -81 -1 -8 2 -26 6 -40 6 -24 15
-142 19 -225 0 -22 5 -43 10 -46 4 -4 3 -16 -3 -28 -7 -11 -8 -21 -4 -21 7 0
12 -54 13 -127 0 -13 5 -23 10 -23 7 0 7 -7 0 -20 -6 -11 -7 -20 -3 -20 4 0 9
-21 11 -48 1 -26 4 -66 6 -89 1 -24 0 -43 -4 -43 -3 0 -11 -15 -18 -34 -7 -18
-35 -63 -63 -100 -27 -36 -47 -66 -44 -66 3 0 0 -7 -7 -15 -29 -35 -34 -42
-59 -80 -14 -22 -32 -55 -40 -72 -7 -18 -18 -33 -23 -33 -4 0 -6 -9 -3 -20 3
-10 2 -19 -2 -18 -18 2 -22 -4 -11 -17 7 -9 10 -18 6 -22 -3 -3 -6 -1 -6 6 0
7 -4 10 -10 6 -5 -3 -7 -12 -3 -20 3 -8 1 -15 -5 -15 -9 0 -27 -55 -23 -72 0
-5 -5 -7 -12 -5 -6 1 -13 -5 -13 -13 -1 -8 -3 -18 -4 -22 -1 -5 -3 -11 -4 -15
-1 -5 -9 -22 -19 -39 -9 -17 -13 -34 -10 -38 4 -3 1 -6 -6 -6 -6 0 -16 -11
-21 -25 -5 -14 -15 -25 -21 -25 -7 0 -9 -3 -6 -6 4 -4 -3 -16 -15 -26 -12 -11
-23 -29 -24 -41 -1 -12 -7 -35 -13 -50 -6 -16 -8 -33 -5 -39 5 -7 2 -8 -6 -3
-10 6 -12 4 -7 -8 5 -13 0 -17 -23 -18 -36 -2 -28 0 -125 -31 -50 -16 -93 -24
-115 -21 -115 15 -208 -17 -259 -91 -19 -28 -41 -46 -62 -52 -21 -6 -38 -20
-48 -40 -15 -29 -22 -32 -90 -43 -41 -6 -80 -16 -88 -22 -9 -8 -13 -8 -13 0 0
6 -5 11 -11 11 -5 0 -7 -4 -4 -10 3 -5 0 -10 -9 -10 -8 0 -20 -2 -28 -3 -7 -2
-10 -2 -5 0 4 3 4 10 1 15 -4 6 -2 8 3 5 6 -4 16 6 22 21 7 16 25 43 42 61 16
18 29 35 29 37 0 3 6 11 12 19 7 7 22 25 33 39 11 15 26 33 33 41 7 8 10 15 5
15 -4 0 3 7 15 16 14 9 21 22 18 31 -3 8 -2 12 3 9 5 -3 17 6 27 20 11 14 26
34 35 44 8 10 24 31 35 45 10 15 28 37 39 49 11 13 28 34 37 47 31 44 128 174
151 202 12 16 21 33 19 38 -1 6 2 8 6 5 5 -3 67 83 138 191 71 108 135 202
142 209 6 7 12 17 12 23 0 6 5 11 10 11 6 0 10 7 10 15 0 8 5 15 10 15 6 0 10
7 10 15 0 8 4 15 8 15 10 0 50 81 93 185 17 44 35 85 39 90 8 11 37 124 44
170 3 17 7 41 10 55 3 14 8 41 11 60 8 57 11 69 17 76 4 3 4 12 1 20 -3 8 0
14 7 14 7 0 10 8 7 20 -3 11 0 18 7 17 6 -1 11 5 11 13 0 8 5 22 10 30 28 44
33 58 21 70 -8 8 -7 10 5 5 13 -5 19 4 28 39 11 43 12 45 35 35 18 -9 29 -28
44 -78z m1922 -221 c0 -5 -5 -10 -11 -10 -5 0 -7 5 -4 10 3 6 8 10 11 10 2 0
4 -4 4 -10z m-84 -34 c0 -14 -3 -23 -7 -20 -6 3 -6 22 0 42 3 10 7 -2 7 -22z
m-3265 -1319 c-10 -9 -11 -8 -5 6 3 10 9 15 12 12 3 -3 0 -11 -7 -18z m-51
-52 c0 -2 -9 -3 -19 -2 -11 0 -18 5 -15 9 4 6 34 0 34 -7z m-3 -21 c-3 -3 -12
-4 -19 -1 -8 3 -5 6 6 6 11 1 17 -2 13 -5z m-38 -16 c-3 -27 1 -39 13 -32 7 5
8 3 3 -5 -4 -8 -11 -9 -16 -4 -14 14 -19 53 -8 53 5 0 9 -6 8 -12z m38 -14
c-3 -3 -12 -4 -19 -1 -8 3 -5 6 6 6 11 1 17 -2 13 -5z m-63 -106 c-3 -4 -11
-5 -19 -1 -21 7 -19 12 4 10 11 0 18 -5 15 -9z m-33 -15 c13 -16 12 -17 -3 -4
-17 13 -22 21 -14 21 2 0 10 -8 17 -17z m459 3 c0 -2 -7 -7 -16 -10 -8 -3 -12
-2 -9 4 6 10 25 14 25 6z m-106 -24 c2 -4 -5 -9 -17 -9 -17 -2 -19 0 -7 7 18
12 18 12 24 2z m4374 -77 c-3 -3 -9 2 -12 12 -6 14 -5 15 5 6 7 -7 10 -15 7
-18z m-4431 -50 c0 -8 -4 -12 -9 -9 -5 3 -6 10 -3 15 9 13 12 11 12 -6z m-33
-33 c3 -5 -1 -9 -9 -9 -8 0 -12 4 -9 9 3 4 7 8 9 8 2 0 6 -4 9 -8z m2324
-1084 c2 -5 9 -8 17 -8 7 0 17 -6 23 -13 9 -10 6 -13 -13 -13 -13 0 -21 4 -19
8 3 4 2 8 -3 9 -4 0 -16 2 -26 4 -9 2 -15 -1 -11 -6 3 -5 10 -7 15 -4 5 4 9 2
9 -3 0 -5 -13 -9 -30 -8 -17 1 -30 6 -30 14 0 7 5 10 12 6 7 -4 8 -3 4 5 -4 6
-13 8 -19 4 -7 -4 -20 -6 -29 -5 -10 2 -18 -1 -18 -7 0 -6 6 -8 14 -5 8 3 17
1 21 -5 4 -7 -1 -8 -12 -4 -16 6 -17 5 -4 -13 7 -10 -3 -1 -22 20 -37 42 -47
42 -84 -4 -11 -13 -14 -13 -23 0 -5 8 -10 11 -10 7 0 -4 -8 -4 -17 2 -14 7
-21 5 -29 -11 -7 -14 -14 -17 -18 -9 -4 6 -2 11 3 11 6 0 11 4 11 10 0 12 -22
9 -32 -5 -5 -6 -12 -5 -20 4 -10 10 -10 12 0 7 6 -4 12 -2 12 4 0 6 6 10 13 9
6 -1 25 3 41 10 16 6 43 14 60 17 17 3 58 11 91 18 59 12 61 12 90 -13 16 -14
31 -29 33 -33z m-142 -10 c4 -6 2 -14 -4 -16 -7 -2 -9 -8 -6 -14 3 -5 -3 -4
-14 3 -16 10 -18 16 -10 26 13 16 25 17 34 1z m268 -109 c4 6 12 11 19 11 6 0
2 -6 -8 -14 -11 -8 -24 -12 -30 -8 -5 3 -4 -2 4 -11 12 -15 11 -17 -8 -17 -21
0 -24 15 -6 36 6 8 12 8 16 2 4 -7 9 -6 13 1z m50 -5 c3 -8 2 -12 -4 -9 -6 3
-10 10 -10 16 0 14 7 11 14 -7z m-581 -31 c-6 -15 -23 -18 -23 -3 0 6 4 10 10
10 5 0 7 8 4 18 -5 13 -4 14 4 3 6 -8 8 -20 5 -28z m50 21 c-5 -14 -3 -15 15
-5 12 7 22 8 22 4 0 -4 5 -1 11 7 9 13 10 12 5 -3 -5 -14 -1 -16 25 -12 22 4
30 2 27 -7 -5 -14 -67 -18 -75 -6 -2 5 -13 6 -24 3 -19 -6 -27 13 -12 28 11
11 13 8 6 -9z m153 3 c14 17 14 17 5 -3 -6 -12 -7 -24 -4 -28 3 -3 4 -6 0 -6
-10 0 -37 31 -37 43 0 7 5 4 11 -6 10 -18 11 -18 25 0z m574 9 c0 -3 -4 -8
-10 -11 -5 -3 -10 -1 -10 4 0 6 5 11 10 11 6 0 10 -2 10 -4z m1520 -146 c0 -5
-5 -10 -11 -10 -5 0 -7 5 -4 10 3 6 8 10 11 10 2 0 4 -4 4 -10z"/>
<path d="M3196 411 c-4 -6 -2 -11 3 -11 21 0 26 -2 39 -12 8 -7 12 -7 12 1 0
10 -7 13 -26 10 -4 0 -10 5 -14 11 -5 9 -9 9 -14 1z"/>
<path d="M6239 348 c-6 -20 -6 -39 0 -42 4 -3 7 6 7 20 0 20 -4 32 -7 22z"/>
<path d="M6196 312 c-3 -5 1 -9 9 -9 8 0 12 4 9 9 -3 4 -7 8 -9 8 -2 0 -6 -4
-9 -8z"/>
<path d="M3775 270 c-3 -5 -1 -10 4 -10 6 0 11 5 11 10 0 6 -2 10 -4 10 -3 0
-8 -4 -11 -10z"/>
<path d="M2929 270 c0 -3 -2 -13 -4 -22 -2 -10 2 -21 7 -25 6 -3 8 -1 4 5 -3
5 0 12 6 15 10 4 11 7 1 18 -7 7 -13 11 -14 9z"/>
<path d="M3710 266 c0 -3 9 -10 20 -16 11 -6 20 -8 20 -6 0 3 -9 10 -20 16
-11 6 -20 8 -20 6z"/>
<path d="M3847 261 c6 -7 9 -20 6 -27 -3 -8 -3 -14 0 -14 14 0 14 30 -1 41
-14 11 -15 11 -5 0z"/>
<path d="M3610 253 c5 -2 8 -9 5 -13 -3 -5 -1 -11 4 -14 5 -4 8 2 7 11 -2 9
-8 18 -15 19 -6 1 -7 0 -1 -3z"/>
<path d="M3645 249 c-6 -8 -4 -10 5 -4 10 6 12 4 6 -11 -6 -15 -5 -17 5 -6 9
9 10 15 2 23 -8 8 -13 7 -18 -2z"/>
<path d="M2630 242 c0 -15 28 -23 36 -9 4 7 4 9 -1 5 -4 -4 -14 -3 -22 3 -8 7
-13 8 -13 1z"/>
<path d="M3897 231 c-4 -17 -3 -21 5 -13 5 5 8 16 6 23 -3 8 -7 3 -11 -10z"/>
<path d="M4205 239 c-4 -6 -5 -12 -2 -15 2 -3 7 2 10 11 7 17 1 20 -8 4z"/>
<path d="M2575 230 c-3 -6 1 -7 9 -4 18 7 21 14 7 14 -6 0 -13 -4 -16 -10z"/>
<path d="M2960 229 c0 -5 5 -7 10 -4 6 3 10 8 10 11 0 2 -4 4 -10 4 -5 0 -10
-5 -10 -11z"/>
<path d="M3715 231 c-3 -5 -2 -12 3 -15 5 -3 9 1 9 9 0 17 -3 19 -12 6z"/>
<path d="M4010 230 c0 -4 7 -7 15 -6 23 3 26 12 5 13 -11 1 -20 -2 -20 -7z"/>
<path d="M4093 215 c0 -8 4 -12 9 -9 5 3 6 10 3 15 -9 13 -12 11 -12 -6z"/>
<path d="M4330 190 c0 -5 5 -10 11 -10 5 0 7 5 4 10 -3 6 -8 10 -11 10 -2 0
-4 -4 -4 -10z"/>
<path d="M790 148 c0 -5 6 -8 14 -8 8 0 21 -3 30 -6 10 -4 16 -1 16 9 0 10
-10 14 -30 13 -16 0 -30 -4 -30 -8z"/>
<path d="M5753 65 c0 -8 4 -12 9 -9 5 3 6 10 3 15 -9 13 -12 11 -12 -6z"/>
<path d="M5785 70 c-3 -6 1 -7 9 -4 18 7 21 14 7 14 -6 0 -13 -4 -16 -10z"/>
<path d="M5854 62 c2 -9 6 -16 10 -15 23 6 24 9 7 20 -16 10 -19 9 -17 -5z"/>
</g>
</svg>
